<svg viewBox="0 0 17 17" xmlns="http://www.w3.org/2000/svg" xml:space="preserve" fill-rule="evenodd" clip-rule="evenodd" stroke-linejoin="round" stroke-miterlimit="2"><g transform="translate(-1062 -29) matrix(.05345 0 0 .05345 1062.5 29.9)"><path fill-opacity="0" d="M0 0H300V300H0z"/><clipPath id="a"><path d="M0 0H300V300H0z"/></clipPath><g clip-path="url(#a)"><path d="M190.4 486c-6.9 0-13.5 4.7-15 12.3-.5 1.9-1.6 3.7-5.4 4.7-30.7 8-11.5 43.5-93.6 59 13.2 2.4 31.5 6 57.4-8.9.7-.4 8.1-3.6 12.6 3.8a46.9 46.9 0 0 0 50.9-52.2c-1-7.3 4-8 14.3-11 0 0-4.4-4.7-11.4-4.1-3-2.5-6.4-3.6-9.8-3.6Zm21.2 68.1c0 5.6-4.6 10.1-10 10.1-5.6 0-10.2-4.5-10.2-10 0-5.6 4.6-10.1 10-10.1 5.6 0 10.2 4.5 10.2 10Zm-33.3-30.9a30 30 0 0 0 6.8 11.1c-22.2 30-45 3.4-33.5 3.4 8.8.3 20.1-3.6 26.7-14.5Zm-1-16a24.8 24.8 0 0 1-30 24.7c7.2-9.2 11.5-23.9 30-24.7Z" fill="#8c8c8c" fill-opacity="1" fill-rule="nonzero" transform="translate(-393.3 -1531.9) scale(3.20663)"/></g></g></svg>